# MagicaVoxel @ Ephtracy

# group
o 

# material
mtllib Keyboard.mtl
usemtl palette

# normals
vn -1 0 0
vn 1 0 0
vn 0 0 1
vn 0 0 -1
vn 0 -1 0
vn 0 1 0

# texcoords
vt 0.986328 0.5
vt 0.994141 0.5

# verts
v 0 2 0
v 0 2 -2.8
v 0 2.2 0
v 0 2.2 -2.8
v 0.7 2.1 -0.1
v 0.7 2.1 -0.2
v 0.7 2.1 -0.3
v 0.7 2.1 -0.5
v 0.7 2.1 -0.6
v 0.7 2.1 -0.7
v 0.7 2.1 -0.8
v 0.7 2.1 -0.9
v 0.7 2.1 -1
v 0.7 2.1 -1.7
v 0.7 2.1 -1.8
v 0.7 2.1 -1.9
v 0.7 2.1 -2
v 0.7 2.1 -2.1
v 0.7 2.1 -2.2
v 0.7 2.1 -2.3
v 0.7 2.1 -2.4
v 0.7 2.1 -2.7
v 0.7 2.2 -0.1
v 0.7 2.2 -0.2
v 0.7 2.2 -0.3
v 0.7 2.2 -0.5
v 0.7 2.2 -0.6
v 0.7 2.2 -0.7
v 0.7 2.2 -0.8
v 0.7 2.2 -0.9
v 0.7 2.2 -1
v 0.7 2.2 -1.7
v 0.7 2.2 -1.8
v 0.7 2.2 -1.9
v 0.7 2.2 -2
v 0.7 2.2 -2.1
v 0.7 2.2 -2.2
v 0.7 2.2 -2.3
v 0.7 2.2 -2.4
v 0.7 2.2 -2.7
v 0.8 2 0
v 0.8 2 -2.8
v 0.8 2.1 -0.1
v 0.8 2.1 -2.7
v 0.8 2.2 0
v 0.8 2.2 -0.1
v 0.8 2.2 -2.7
v 0.8 2.2 -2.8
v 0 2 0
v 0 2.2 0
v 0.8 2 0
v 0.8 2.2 0
v 0.7 2.1 -2.7
v 0.7 2.2 -2.7
v 0.8 2.1 -2.7
v 0.8 2.2 -2.7
v 0.7 2.1 -0.1
v 0.7 2.2 -0.1
v 0.8 2.1 -0.1
v 0.8 2.2 -0.1
v 0 2 -2.8
v 0 2.2 -2.8
v 0.8 2 -2.8
v 0.8 2.2 -2.8
v 0 2 0
v 0.8 2 0
v 0 2 -2.8
v 0.8 2 -2.8
v 0.7 2.1 -0.1
v 0.8 2.1 -0.1
v 0.7 2.1 -0.2
v 0.7 2.1 -0.3
v 0.7 2.1 -0.5
v 0.7 2.1 -0.6
v 0.7 2.1 -0.7
v 0.7 2.1 -0.8
v 0.7 2.1 -0.9
v 0.7 2.1 -1
v 0.7 2.1 -1.7
v 0.7 2.1 -1.8
v 0.7 2.1 -1.9
v 0.7 2.1 -2
v 0.7 2.1 -2.1
v 0.7 2.1 -2.2
v 0.7 2.1 -2.3
v 0.7 2.1 -2.4
v 0.7 2.1 -2.7
v 0.8 2.1 -2.7
v 0 2.2 0
v 0.8 2.2 0
v 0.1 2.2 -0.1
v 0.7 2.2 -0.1
v 0.8 2.2 -0.1
v 0.2 2.2 -0.2
v 0.3 2.2 -0.2
v 0.6 2.2 -0.2
v 0.7 2.2 -0.2
v 0.1 2.2 -0.3
v 0.2 2.2 -0.3
v 0.3 2.2 -0.3
v 0.4 2.2 -0.3
v 0.6 2.2 -0.3
v 0.7 2.2 -0.3
v 0.1 2.2 -0.4
v 0.2 2.2 -0.4
v 0.3 2.2 -0.4
v 0.4 2.2 -0.4
v 0.5 2.2 -0.4
v 0.1 2.2 -0.5
v 0.2 2.2 -0.5
v 0.3 2.2 -0.5
v 0.4 2.2 -0.5
v 0.5 2.2 -0.5
v 0.7 2.2 -0.5
v 0.1 2.2 -0.6
v 0.2 2.2 -0.6
v 0.3 2.2 -0.6
v 0.4 2.2 -0.6
v 0.5 2.2 -0.6
v 0.7 2.2 -0.6
v 0.1 2.2 -0.7
v 0.2 2.2 -0.7
v 0.3 2.2 -0.7
v 0.4 2.2 -0.7
v 0.5 2.2 -0.7
v 0.7 2.2 -0.7
v 0.1 2.2 -0.8
v 0.2 2.2 -0.8
v 0.3 2.2 -0.8
v 0.4 2.2 -0.8
v 0.5 2.2 -0.8
v 0.7 2.2 -0.8
v 0.1 2.2 -0.9
v 0.2 2.2 -0.9
v 0.3 2.2 -0.9
v 0.4 2.2 -0.9
v 0.5 2.2 -0.9
v 0.7 2.2 -0.9
v 0.1 2.2 -1
v 0.2 2.2 -1
v 0.3 2.2 -1
v 0.4 2.2 -1
v 0.5 2.2 -1
v 0.7 2.2 -1
v 0.1 2.2 -1.1
v 0.2 2.2 -1.1
v 0.3 2.2 -1.1
v 0.4 2.2 -1.1
v 0.5 2.2 -1.1
v 0.6 2.2 -1.1
v 0.1 2.2 -1.2
v 0.2 2.2 -1.2
v 0.3 2.2 -1.2
v 0.4 2.2 -1.2
v 0.5 2.2 -1.2
v 0.6 2.2 -1.2
v 0.1 2.2 -1.3
v 0.2 2.2 -1.3
v 0.3 2.2 -1.3
v 0.4 2.2 -1.3
v 0.5 2.2 -1.3
v 0.6 2.2 -1.3
v 0.1 2.2 -1.4
v 0.2 2.2 -1.4
v 0.3 2.2 -1.4
v 0.4 2.2 -1.4
v 0.5 2.2 -1.4
v 0.6 2.2 -1.4
v 0.1 2.2 -1.5
v 0.2 2.2 -1.5
v 0.3 2.2 -1.5
v 0.4 2.2 -1.5
v 0.5 2.2 -1.5
v 0.6 2.2 -1.5
v 0.1 2.2 -1.6
v 0.2 2.2 -1.6
v 0.3 2.2 -1.6
v 0.4 2.2 -1.6
v 0.5 2.2 -1.6
v 0.6 2.2 -1.6
v 0.1 2.2 -1.7
v 0.2 2.2 -1.7
v 0.3 2.2 -1.7
v 0.4 2.2 -1.7
v 0.5 2.2 -1.7
v 0.7 2.2 -1.7
v 0.1 2.2 -1.8
v 0.2 2.2 -1.8
v 0.3 2.2 -1.8
v 0.4 2.2 -1.8
v 0.5 2.2 -1.8
v 0.7 2.2 -1.8
v 0.1 2.2 -1.9
v 0.2 2.2 -1.9
v 0.3 2.2 -1.9
v 0.4 2.2 -1.9
v 0.5 2.2 -1.9
v 0.7 2.2 -1.9
v 0.1 2.2 -2
v 0.2 2.2 -2
v 0.3 2.2 -2
v 0.4 2.2 -2
v 0.5 2.2 -2
v 0.7 2.2 -2
v 0.1 2.2 -2.1
v 0.2 2.2 -2.1
v 0.3 2.2 -2.1
v 0.4 2.2 -2.1
v 0.5 2.2 -2.1
v 0.7 2.2 -2.1
v 0.1 2.2 -2.2
v 0.2 2.2 -2.2
v 0.3 2.2 -2.2
v 0.4 2.2 -2.2
v 0.5 2.2 -2.2
v 0.7 2.2 -2.2
v 0.1 2.2 -2.3
v 0.2 2.2 -2.3
v 0.3 2.2 -2.3
v 0.4 2.2 -2.3
v 0.5 2.2 -2.3
v 0.7 2.2 -2.3
v 0.1 2.2 -2.4
v 0.2 2.2 -2.4
v 0.3 2.2 -2.4
v 0.4 2.2 -2.4
v 0.6 2.2 -2.4
v 0.7 2.2 -2.4
v 0.2 2.2 -2.5
v 0.3 2.2 -2.5
v 0.5 2.2 -2.5
v 0.6 2.2 -2.5
v 0.2 2.2 -2.6
v 0.3 2.2 -2.6
v 0.5 2.2 -2.6
v 0.6 2.2 -2.6
v 0.1 2.2 -2.7
v 0.5 2.2 -2.7
v 0.6 2.2 -2.7
v 0.7 2.2 -2.7
v 0.8 2.2 -2.7
v 0 2.2 -2.8
v 0.8 2.2 -2.8

# faces
f 3/2/1 2/2/1 1/2/1
f 4/2/1 2/2/1 3/2/1
f 5/1/2 6/1/2 23/1/2
f 6/2/2 7/2/2 24/2/2
f 23/1/2 6/1/2 24/1/2
f 7/1/2 8/1/2 25/1/2
f 24/2/2 7/2/2 25/2/2
f 8/2/2 9/2/2 26/2/2
f 25/1/2 8/1/2 26/1/2
f 9/1/2 10/1/2 27/1/2
f 26/2/2 9/2/2 27/2/2
f 10/2/2 11/2/2 28/2/2
f 27/1/2 10/1/2 28/1/2
f 11/1/2 12/1/2 29/1/2
f 28/2/2 11/2/2 29/2/2
f 12/2/2 13/2/2 30/2/2
f 29/1/2 12/1/2 30/1/2
f 13/1/2 14/1/2 31/1/2
f 30/2/2 13/2/2 31/2/2
f 14/2/2 15/2/2 32/2/2
f 31/1/2 14/1/2 32/1/2
f 15/1/2 16/1/2 33/1/2
f 32/2/2 15/2/2 33/2/2
f 16/2/2 17/2/2 34/2/2
f 33/1/2 16/1/2 34/1/2
f 17/1/2 18/1/2 35/1/2
f 34/2/2 17/2/2 35/2/2
f 18/2/2 19/2/2 36/2/2
f 35/1/2 18/1/2 36/1/2
f 19/1/2 20/1/2 37/1/2
f 36/2/2 19/2/2 37/2/2
f 20/2/2 21/2/2 38/2/2
f 37/1/2 20/1/2 38/1/2
f 21/1/2 22/1/2 39/1/2
f 38/2/2 21/2/2 39/2/2
f 39/1/2 22/1/2 40/1/2
f 41/2/2 42/2/2 43/2/2
f 43/2/2 42/2/2 44/2/2
f 41/2/2 43/2/2 45/2/2
f 45/2/2 43/2/2 46/2/2
f 44/2/2 42/2/2 47/2/2
f 47/2/2 42/2/2 48/2/2
f 51/2/3 50/2/3 49/2/3
f 52/2/3 50/2/3 51/2/3
f 55/2/3 54/2/3 53/2/3
f 56/2/3 54/2/3 55/2/3
f 57/2/4 58/2/4 59/2/4
f 59/2/4 58/2/4 60/2/4
f 61/2/4 62/2/4 63/2/4
f 63/2/4 62/2/4 64/2/4
f 67/2/5 66/2/5 65/2/5
f 68/2/5 66/2/5 67/2/5
f 69/2/6 70/2/6 71/2/6
f 71/2/6 70/2/6 72/2/6
f 72/2/6 70/2/6 73/2/6
f 73/2/6 70/2/6 74/2/6
f 74/2/6 70/2/6 75/2/6
f 75/2/6 70/2/6 76/2/6
f 76/2/6 70/2/6 77/2/6
f 77/2/6 70/2/6 78/2/6
f 78/2/6 70/2/6 79/2/6
f 79/2/6 70/2/6 80/2/6
f 80/2/6 70/2/6 81/2/6
f 81/2/6 70/2/6 82/2/6
f 82/2/6 70/2/6 83/2/6
f 83/2/6 70/2/6 84/2/6
f 84/2/6 70/2/6 85/2/6
f 85/2/6 70/2/6 86/2/6
f 86/2/6 70/2/6 87/2/6
f 87/2/6 70/2/6 88/2/6
f 89/2/6 90/2/6 91/2/6
f 91/2/6 90/2/6 92/2/6
f 92/2/6 90/2/6 93/2/6
f 91/1/6 92/1/6 94/1/6
f 94/1/6 92/1/6 95/1/6
f 95/1/6 92/1/6 96/1/6
f 96/1/6 92/1/6 97/1/6
f 89/2/6 91/2/6 98/2/6
f 91/1/6 94/1/6 98/1/6
f 94/2/6 95/2/6 99/2/6
f 98/1/6 94/1/6 99/1/6
f 95/1/6 96/1/6 100/1/6
f 99/2/6 95/2/6 100/2/6
f 100/1/6 96/1/6 101/1/6
f 96/2/6 97/2/6 102/2/6
f 101/1/6 96/1/6 102/1/6
f 102/2/6 97/2/6 103/2/6
f 89/2/6 98/2/6 104/2/6
f 98/2/6 99/2/6 104/2/6
f 99/1/6 100/1/6 105/1/6
f 104/2/6 99/2/6 105/2/6
f 100/2/6 101/2/6 106/2/6
f 105/1/6 100/1/6 106/1/6
f 102/1/6 103/1/6 107/1/6
f 106/2/6 101/2/6 107/2/6
f 101/1/6 102/1/6 107/1/6
f 107/1/6 103/1/6 108/1/6
f 104/1/6 105/1/6 109/1/6
f 89/2/6 104/2/6 109/2/6
f 105/2/6 106/2/6 110/2/6
f 109/1/6 105/1/6 110/1/6
f 106/1/6 107/1/6 111/1/6
f 110/2/6 106/2/6 111/2/6
f 107/2/6 108/2/6 112/2/6
f 111/1/6 107/1/6 112/1/6
f 108/1/6 103/1/6 113/1/6
f 112/2/6 108/2/6 113/2/6
f 113/1/6 103/1/6 114/1/6
f 89/2/6 109/2/6 115/2/6
f 109/2/6 110/2/6 115/2/6
f 110/1/6 111/1/6 116/1/6
f 115/2/6 110/2/6 116/2/6
f 111/2/6 112/2/6 117/2/6
f 116/1/6 111/1/6 117/1/6
f 112/1/6 113/1/6 118/1/6
f 117/2/6 112/2/6 118/2/6
f 113/2/6 114/2/6 119/2/6
f 118/1/6 113/1/6 119/1/6
f 119/2/6 114/2/6 120/2/6
f 115/1/6 116/1/6 121/1/6
f 89/2/6 115/2/6 121/2/6
f 116/2/6 117/2/6 122/2/6
f 121/1/6 116/1/6 122/1/6
f 117/1/6 118/1/6 123/1/6
f 122/2/6 117/2/6 123/2/6
f 118/2/6 119/2/6 124/2/6
f 123/1/6 118/1/6 124/1/6
f 119/1/6 120/1/6 125/1/6
f 124/2/6 119/2/6 125/2/6
f 125/1/6 120/1/6 126/1/6
f 121/2/6 122/2/6 127/2/6
f 89/2/6 121/2/6 127/2/6
f 122/1/6 123/1/6 128/1/6
f 127/2/6 122/2/6 128/2/6
f 123/2/6 124/2/6 129/2/6
f 128/1/6 123/1/6 129/1/6
f 124/1/6 125/1/6 130/1/6
f 129/2/6 124/2/6 130/2/6
f 125/2/6 126/2/6 131/2/6
f 130/1/6 125/1/6 131/1/6
f 131/2/6 126/2/6 132/2/6
f 127/1/6 128/1/6 133/1/6
f 89/2/6 127/2/6 133/2/6
f 128/2/6 129/2/6 134/2/6
f 133/1/6 128/1/6 134/1/6
f 129/1/6 130/1/6 135/1/6
f 134/2/6 129/2/6 135/2/6
f 130/2/6 131/2/6 136/2/6
f 135/1/6 130/1/6 136/1/6
f 131/1/6 132/1/6 137/1/6
f 136/2/6 131/2/6 137/2/6
f 137/1/6 132/1/6 138/1/6
f 133/2/6 134/2/6 139/2/6
f 89/2/6 133/2/6 139/2/6
f 134/1/6 135/1/6 140/1/6
f 139/2/6 134/2/6 140/2/6
f 135/2/6 136/2/6 141/2/6
f 140/1/6 135/1/6 141/1/6
f 136/1/6 137/1/6 142/1/6
f 141/2/6 136/2/6 142/2/6
f 137/2/6 138/2/6 143/2/6
f 142/1/6 137/1/6 143/1/6
f 143/2/6 138/2/6 144/2/6
f 139/1/6 140/1/6 145/1/6
f 89/2/6 139/2/6 145/2/6
f 140/2/6 141/2/6 146/2/6
f 145/1/6 140/1/6 146/1/6
f 141/1/6 142/1/6 147/1/6
f 146/2/6 141/2/6 147/2/6
f 142/2/6 143/2/6 148/2/6
f 147/1/6 142/1/6 148/1/6
f 143/1/6 144/1/6 149/1/6
f 148/2/6 143/2/6 149/2/6
f 149/1/6 144/1/6 150/1/6
f 145/2/6 146/2/6 151/2/6
f 89/2/6 145/2/6 151/2/6
f 146/1/6 147/1/6 152/1/6
f 151/2/6 146/2/6 152/2/6
f 147/2/6 148/2/6 153/2/6
f 152/1/6 147/1/6 153/1/6
f 148/1/6 149/1/6 154/1/6
f 153/2/6 148/2/6 154/2/6
f 149/2/6 150/2/6 155/2/6
f 154/1/6 149/1/6 155/1/6
f 150/1/6 144/1/6 156/1/6
f 155/2/6 150/2/6 156/2/6
f 151/1/6 152/1/6 157/1/6
f 89/2/6 151/2/6 157/2/6
f 152/2/6 153/2/6 158/2/6
f 157/1/6 152/1/6 158/1/6
f 153/1/6 154/1/6 159/1/6
f 158/2/6 153/2/6 159/2/6
f 154/2/6 155/2/6 160/2/6
f 159/1/6 154/1/6 160/1/6
f 155/1/6 156/1/6 161/1/6
f 160/2/6 155/2/6 161/2/6
f 156/1/6 144/1/6 162/1/6
f 161/1/6 156/1/6 162/1/6
f 157/2/6 158/2/6 163/2/6
f 89/2/6 157/2/6 163/2/6
f 158/1/6 159/1/6 164/1/6
f 163/2/6 158/2/6 164/2/6
f 159/2/6 160/2/6 165/2/6
f 164/1/6 159/1/6 165/1/6
f 160/1/6 161/1/6 166/1/6
f 165/2/6 160/2/6 166/2/6
f 161/2/6 162/2/6 167/2/6
f 166/1/6 161/1/6 167/1/6
f 162/1/6 144/1/6 168/1/6
f 167/2/6 162/2/6 168/2/6
f 89/2/6 163/2/6 169/2/6
f 163/1/6 164/1/6 169/1/6
f 164/2/6 165/2/6 170/2/6
f 169/1/6 164/1/6 170/1/6
f 165/1/6 166/1/6 171/1/6
f 170/2/6 165/2/6 171/2/6
f 166/2/6 167/2/6 172/2/6
f 171/1/6 166/1/6 172/1/6
f 167/1/6 168/1/6 173/1/6
f 172/2/6 167/2/6 173/2/6
f 168/1/6 144/1/6 174/1/6
f 173/1/6 168/1/6 174/1/6
f 89/2/6 169/2/6 175/2/6
f 169/2/6 170/2/6 175/2/6
f 170/1/6 171/1/6 176/1/6
f 175/2/6 170/2/6 176/2/6
f 171/2/6 172/2/6 177/2/6
f 176/1/6 171/1/6 177/1/6
f 172/1/6 173/1/6 178/1/6
f 177/2/6 172/2/6 178/2/6
f 173/2/6 174/2/6 179/2/6
f 178/1/6 173/1/6 179/1/6
f 174/1/6 144/1/6 180/1/6
f 179/2/6 174/2/6 180/2/6
f 89/2/6 175/2/6 181/2/6
f 175/1/6 176/1/6 181/1/6
f 176/2/6 177/2/6 182/2/6
f 181/1/6 176/1/6 182/1/6
f 177/1/6 178/1/6 183/1/6
f 182/2/6 177/2/6 183/2/6
f 178/2/6 179/2/6 184/2/6
f 183/1/6 178/1/6 184/1/6
f 179/1/6 180/1/6 185/1/6
f 184/2/6 179/2/6 185/2/6
f 180/1/6 144/1/6 186/1/6
f 185/1/6 180/1/6 186/1/6
f 89/2/6 181/2/6 187/2/6
f 181/2/6 182/2/6 187/2/6
f 182/1/6 183/1/6 188/1/6
f 187/2/6 182/2/6 188/2/6
f 183/2/6 184/2/6 189/2/6
f 188/1/6 183/1/6 189/1/6
f 184/1/6 185/1/6 190/1/6
f 189/2/6 184/2/6 190/2/6
f 185/2/6 186/2/6 191/2/6
f 190/1/6 185/1/6 191/1/6
f 191/2/6 186/2/6 192/2/6
f 89/2/6 187/2/6 193/2/6
f 187/1/6 188/1/6 193/1/6
f 188/2/6 189/2/6 194/2/6
f 193/1/6 188/1/6 194/1/6
f 189/1/6 190/1/6 195/1/6
f 194/2/6 189/2/6 195/2/6
f 190/2/6 191/2/6 196/2/6
f 195/1/6 190/1/6 196/1/6
f 191/1/6 192/1/6 197/1/6
f 196/2/6 191/2/6 197/2/6
f 197/1/6 192/1/6 198/1/6
f 89/2/6 193/2/6 199/2/6
f 193/2/6 194/2/6 199/2/6
f 194/1/6 195/1/6 200/1/6
f 199/2/6 194/2/6 200/2/6
f 195/2/6 196/2/6 201/2/6
f 200/1/6 195/1/6 201/1/6
f 196/1/6 197/1/6 202/1/6
f 201/2/6 196/2/6 202/2/6
f 197/2/6 198/2/6 203/2/6
f 202/1/6 197/1/6 203/1/6
f 203/2/6 198/2/6 204/2/6
f 199/1/6 200/1/6 205/1/6
f 89/2/6 199/2/6 205/2/6
f 200/2/6 201/2/6 206/2/6
f 205/1/6 200/1/6 206/1/6
f 201/1/6 202/1/6 207/1/6
f 206/2/6 201/2/6 207/2/6
f 202/2/6 203/2/6 208/2/6
f 207/1/6 202/1/6 208/1/6
f 203/1/6 204/1/6 209/1/6
f 208/2/6 203/2/6 209/2/6
f 209/1/6 204/1/6 210/1/6
f 205/2/6 206/2/6 211/2/6
f 89/2/6 205/2/6 211/2/6
f 206/1/6 207/1/6 212/1/6
f 211/2/6 206/2/6 212/2/6
f 207/2/6 208/2/6 213/2/6
f 212/1/6 207/1/6 213/1/6
f 208/1/6 209/1/6 214/1/6
f 213/2/6 208/2/6 214/2/6
f 209/2/6 210/2/6 215/2/6
f 214/1/6 209/1/6 215/1/6
f 215/2/6 210/2/6 216/2/6
f 211/1/6 212/1/6 217/1/6
f 89/2/6 211/2/6 217/2/6
f 212/2/6 213/2/6 218/2/6
f 217/1/6 212/1/6 218/1/6
f 213/1/6 214/1/6 219/1/6
f 218/2/6 213/2/6 219/2/6
f 214/2/6 215/2/6 220/2/6
f 219/1/6 214/1/6 220/1/6
f 215/1/6 216/1/6 221/1/6
f 220/2/6 215/2/6 221/2/6
f 221/1/6 216/1/6 222/1/6
f 217/2/6 218/2/6 223/2/6
f 89/2/6 217/2/6 223/2/6
f 218/1/6 219/1/6 224/1/6
f 223/2/6 218/2/6 224/2/6
f 219/2/6 220/2/6 225/2/6
f 224/1/6 219/1/6 225/1/6
f 220/1/6 221/1/6 226/1/6
f 225/2/6 220/2/6 226/2/6
f 221/2/6 222/2/6 227/2/6
f 227/2/6 222/2/6 228/2/6
f 223/1/6 224/1/6 229/1/6
f 224/1/6 225/1/6 229/1/6
f 225/1/6 226/1/6 229/1/6
f 229/1/6 226/1/6 230/1/6
f 226/1/6 221/1/6 231/1/6
f 230/1/6 226/1/6 231/1/6
f 221/2/6 227/2/6 231/2/6
f 227/1/6 228/1/6 232/1/6
f 231/2/6 227/2/6 232/2/6
f 229/2/6 230/2/6 233/2/6
f 223/1/6 229/1/6 233/1/6
f 230/1/6 231/1/6 234/1/6
f 233/2/6 230/2/6 234/2/6
f 231/1/6 232/1/6 234/1/6
f 234/1/6 232/1/6 235/1/6
f 232/1/6 228/1/6 236/1/6
f 235/1/6 232/1/6 236/1/6
f 234/1/6 235/1/6 237/1/6
f 89/2/6 223/2/6 237/2/6
f 223/1/6 233/1/6 237/1/6
f 233/1/6 234/1/6 237/1/6
f 235/2/6 236/2/6 238/2/6
f 237/1/6 235/1/6 238/1/6
f 236/1/6 228/1/6 239/1/6
f 238/2/6 236/2/6 239/2/6
f 239/1/6 228/1/6 240/1/6
f 239/2/6 240/2/6 242/2/6
f 240/2/6 241/2/6 242/2/6
f 237/2/6 238/2/6 242/2/6
f 89/2/6 237/2/6 242/2/6
f 238/2/6 239/2/6 242/2/6
f 242/2/6 241/2/6 243/2/6
