# MagicaVoxel @ Ephtracy

# group
o 

# material
mtllib Tower.mtl
usemtl palette

# normals
vn -1 0 0
vn 1 0 0
vn 0 0 1
vn 0 0 -1
vn 0 -1 0
vn 0 1 0

# texcoords
vt 0.931641 0.5
vt 0.958984 0.5
vt 0.994141 0.5

# verts
v 0 2 0
v 0 2 -1.9
v 0 2.1 0
v 0 2.1 -1.9
v 0.5 2.1 -0.5
v 0.5 2.1 -1.4
v 0.5 2.2 -0.5
v 0.5 2.2 -1.4
v 0.7 2.2 -0.7
v 0.7 2.2 -1.2
v 0.7 2.4 -0.7
v 0.7 2.4 -1.2
v 0.7 2.6 -0.7
v 0.7 2.6 -0.8
v 0.7 2.6 -1.1
v 0.7 2.6 -1.2
v 0.7 4.4 -0.7
v 0.7 4.4 -0.8
v 0.7 4.4 -1.1
v 0.7 4.4 -1.2
v 0.7 4.5 -0.7
v 0.7 4.5 -0.8
v 0.7 4.5 -1.1
v 0.7 4.5 -1.2
v 0.7 5 -0.7
v 0.7 5 -0.8
v 0.7 5 -1.1
v 0.7 5 -1.2
v 0.7 5.1 -0.7
v 0.7 5.1 -0.8
v 0.7 5.1 -1.1
v 0.7 5.1 -1.2
v 0.7 5.4 -0.7
v 0.7 5.4 -0.8
v 0.7 5.4 -1.1
v 0.7 5.4 -1.2
v 0.8 2.4 -0.8
v 0.8 2.4 -1.1
v 0.8 2.6 -0.8
v 0.8 2.6 -1.1
v 0.8 4.4 -0.8
v 0.8 4.4 -1.1
v 0.8 4.5 -0.8
v 0.8 4.5 -1.1
v 0.8 5 -0.8
v 0.8 5 -1.1
v 0.8 5.1 -0.8
v 0.8 5.1 -1.1
v 1.1 2.4 -0.8
v 1.1 2.4 -1.1
v 1.1 2.6 -0.8
v 1.1 2.6 -1.1
v 1.1 4.4 -0.8
v 1.1 4.4 -1.1
v 1.1 4.5 -0.8
v 1.1 4.5 -1.1
v 1.1 5 -0.8
v 1.1 5 -1.1
v 1.1 5.1 -0.8
v 1.1 5.1 -1.1
v 1.2 2.2 -0.7
v 1.2 2.2 -1.2
v 1.2 2.4 -0.7
v 1.2 2.4 -1.2
v 1.2 2.6 -0.7
v 1.2 2.6 -0.8
v 1.2 2.6 -1.2
v 1.2 2.7 -1.1
v 1.2 2.7 -1.2
v 1.2 4.4 -0.7
v 1.2 4.4 -0.8
v 1.2 4.4 -1.1
v 1.2 4.4 -1.2
v 1.2 4.5 -0.7
v 1.2 4.5 -0.8
v 1.2 4.5 -1.1
v 1.2 4.5 -1.2
v 1.2 5 -0.7
v 1.2 5 -0.8
v 1.2 5 -1.1
v 1.2 5 -1.2
v 1.2 5.1 -0.7
v 1.2 5.1 -0.8
v 1.2 5.1 -1.1
v 1.2 5.1 -1.2
v 1.2 5.4 -0.7
v 1.2 5.4 -0.8
v 1.2 5.4 -1.1
v 1.2 5.4 -1.2
v 1.4 2.1 -0.5
v 1.4 2.1 -1.4
v 1.4 2.2 -0.5
v 1.4 2.2 -1.4
v 1.9 2 0
v 1.9 2 -1.9
v 1.9 2.1 0
v 1.9 2.1 -1.9
v 0 2 0
v 0 2.1 0
v 1.9 2 0
v 1.9 2.1 0
v 0.5 2.1 -0.5
v 0.5 2.2 -0.5
v 1.4 2.1 -0.5
v 1.4 2.2 -0.5
v 0.7 2.2 -0.7
v 0.7 2.4 -0.7
v 0.7 2.6 -0.7
v 0.7 4.4 -0.7
v 0.7 4.5 -0.7
v 0.7 5 -0.7
v 0.7 5.1 -0.7
v 0.7 5.4 -0.7
v 0.8 2.6 -0.7
v 0.8 4.4 -0.7
v 0.8 4.5 -0.7
v 0.8 5 -0.7
v 0.8 5.1 -0.7
v 0.8 5.4 -0.7
v 1.1 2.6 -0.7
v 1.1 4.4 -0.7
v 1.1 4.5 -0.7
v 1.1 5 -0.7
v 1.1 5.1 -0.7
v 1.1 5.4 -0.7
v 1.2 2.2 -0.7
v 1.2 2.4 -0.7
v 1.2 2.6 -0.7
v 1.2 4.4 -0.7
v 1.2 4.5 -0.7
v 1.2 5 -0.7
v 1.2 5.1 -0.7
v 1.2 5.4 -0.7
v 0.8 2.4 -0.8
v 0.8 2.6 -0.8
v 0.8 4.4 -0.8
v 0.8 4.5 -0.8
v 0.8 5 -0.8
v 0.8 5.1 -0.8
v 1.1 2.4 -0.8
v 1.1 2.6 -0.8
v 1.1 4.4 -0.8
v 1.1 4.5 -0.8
v 1.1 5 -0.8
v 1.1 5.1 -0.8
v 0.8 2.4 -1.1
v 0.8 2.6 -1.1
v 0.8 4.4 -1.1
v 0.8 4.5 -1.1
v 0.8 5 -1.1
v 0.8 5.1 -1.1
v 1.1 2.4 -1.1
v 1.1 2.6 -1.1
v 1.1 4.4 -1.1
v 1.1 4.5 -1.1
v 1.1 5 -1.1
v 1.1 5.1 -1.1
v 0.7 2.2 -1.2
v 0.7 2.4 -1.2
v 0.7 2.6 -1.2
v 0.7 4.4 -1.2
v 0.7 4.5 -1.2
v 0.7 5 -1.2
v 0.7 5.1 -1.2
v 0.7 5.4 -1.2
v 0.8 2.6 -1.2
v 0.8 4.4 -1.2
v 0.8 4.5 -1.2
v 0.8 5 -1.2
v 0.8 5.1 -1.2
v 0.8 5.4 -1.2
v 1.1 2.7 -1.2
v 1.1 4.4 -1.2
v 1.1 4.5 -1.2
v 1.1 5 -1.2
v 1.1 5.1 -1.2
v 1.1 5.4 -1.2
v 1.2 2.2 -1.2
v 1.2 2.4 -1.2
v 1.2 2.6 -1.2
v 1.2 2.7 -1.2
v 1.2 4.4 -1.2
v 1.2 4.5 -1.2
v 1.2 5 -1.2
v 1.2 5.1 -1.2
v 1.2 5.4 -1.2
v 0.5 2.1 -1.4
v 0.5 2.2 -1.4
v 1.4 2.1 -1.4
v 1.4 2.2 -1.4
v 0 2 -1.9
v 0 2.1 -1.9
v 1.9 2 -1.9
v 1.9 2.1 -1.9
v 0 2 0
v 1.9 2 0
v 0 2 -1.9
v 1.9 2 -1.9
v 0.7 2.6 -0.7
v 0.8 2.6 -0.7
v 1.1 2.6 -0.7
v 1.2 2.6 -0.7
v 0.7 2.6 -0.8
v 0.8 2.6 -0.8
v 1.1 2.6 -0.8
v 1.2 2.6 -0.8
v 0.7 2.6 -1.1
v 0.8 2.6 -1.1
v 1.1 2.6 -1.1
v 0.7 2.6 -1.2
v 0.8 2.6 -1.2
v 1.2 2.6 -1.2
v 0.7 4.5 -0.7
v 0.8 4.5 -0.7
v 1.1 4.5 -0.7
v 1.2 4.5 -0.7
v 0.7 4.5 -0.8
v 0.8 4.5 -0.8
v 1.1 4.5 -0.8
v 1.2 4.5 -0.8
v 0.7 4.5 -1.1
v 0.8 4.5 -1.1
v 1.1 4.5 -1.1
v 1.2 4.5 -1.1
v 0.7 4.5 -1.2
v 0.8 4.5 -1.2
v 1.1 4.5 -1.2
v 1.2 4.5 -1.2
v 0.7 5.1 -0.7
v 0.8 5.1 -0.7
v 1.1 5.1 -0.7
v 1.2 5.1 -0.7
v 0.7 5.1 -0.8
v 0.8 5.1 -0.8
v 1.1 5.1 -0.8
v 1.2 5.1 -0.8
v 0.7 5.1 -1.1
v 0.8 5.1 -1.1
v 1.1 5.1 -1.1
v 1.2 5.1 -1.1
v 0.7 5.1 -1.2
v 0.8 5.1 -1.2
v 1.1 5.1 -1.2
v 1.2 5.1 -1.2
v 0 2.1 0
v 1.9 2.1 0
v 0.5 2.1 -0.5
v 1.4 2.1 -0.5
v 0.5 2.1 -1.4
v 1.4 2.1 -1.4
v 0 2.1 -1.9
v 1.9 2.1 -1.9
v 0.5 2.2 -0.5
v 1.4 2.2 -0.5
v 0.7 2.2 -0.7
v 1.2 2.2 -0.7
v 0.7 2.2 -1.2
v 1.2 2.2 -1.2
v 0.5 2.2 -1.4
v 1.4 2.2 -1.4
v 0.7 2.4 -0.7
v 1.2 2.4 -0.7
v 0.8 2.4 -0.8
v 1.1 2.4 -0.8
v 0.8 2.4 -1.1
v 1.1 2.4 -1.1
v 0.7 2.4 -1.2
v 1.2 2.4 -1.2
v 0.7 4.4 -0.7
v 0.8 4.4 -0.7
v 1.1 4.4 -0.7
v 1.2 4.4 -0.7
v 0.7 4.4 -0.8
v 0.8 4.4 -0.8
v 1.1 4.4 -0.8
v 1.2 4.4 -0.8
v 0.7 4.4 -1.1
v 0.8 4.4 -1.1
v 1.1 4.4 -1.1
v 1.2 4.4 -1.1
v 0.7 4.4 -1.2
v 0.8 4.4 -1.2
v 1.1 4.4 -1.2
v 1.2 4.4 -1.2
v 0.7 5 -0.7
v 0.8 5 -0.7
v 1.1 5 -0.7
v 1.2 5 -0.7
v 0.7 5 -0.8
v 0.8 5 -0.8
v 1.1 5 -0.8
v 1.2 5 -0.8
v 0.7 5 -1.1
v 0.8 5 -1.1
v 1.1 5 -1.1
v 1.2 5 -1.1
v 0.7 5 -1.2
v 0.8 5 -1.2
v 1.1 5 -1.2
v 1.2 5 -1.2
v 0.7 5.4 -0.7
v 0.8 5.4 -0.7
v 1.1 5.4 -0.7
v 1.2 5.4 -0.7
v 0.7 5.4 -0.8
v 0.8 5.4 -0.8
v 1.1 5.4 -0.8
v 1.2 5.4 -0.8
v 0.7 5.4 -1.1
v 0.8 5.4 -1.1
v 1.1 5.4 -1.1
v 1.2 5.4 -1.1
v 0.7 5.4 -1.2
v 0.8 5.4 -1.2
v 1.1 5.4 -1.2
v 1.2 5.4 -1.2

# faces
f 3/3/1 2/3/1 1/3/1
f 4/3/1 2/3/1 3/3/1
f 7/3/1 6/3/1 5/3/1
f 8/3/1 6/3/1 7/3/1
f 11/3/1 10/3/1 9/3/1
f 12/3/1 10/3/1 11/3/1
f 17/2/1 14/2/1 13/2/1
f 18/3/1 15/3/1 14/3/1
f 18/2/1 14/2/1 17/2/1
f 19/2/1 16/2/1 15/2/1
f 19/3/1 15/3/1 18/3/1
f 20/2/1 16/2/1 19/2/1
f 25/2/1 22/2/1 21/2/1
f 26/3/1 23/3/1 22/3/1
f 26/2/1 22/2/1 25/2/1
f 27/2/1 24/2/1 23/2/1
f 27/3/1 23/3/1 26/3/1
f 28/2/1 24/2/1 27/2/1
f 33/2/1 30/2/1 29/2/1
f 34/3/1 31/3/1 30/3/1
f 34/2/1 30/2/1 33/2/1
f 35/2/1 32/2/1 31/2/1
f 35/3/1 31/3/1 34/3/1
f 36/2/1 32/2/1 35/2/1
f 39/1/1 38/1/1 37/1/1
f 40/1/1 38/1/1 39/1/1
f 43/1/1 42/1/1 41/1/1
f 44/1/1 42/1/1 43/1/1
f 47/1/1 46/1/1 45/1/1
f 48/1/1 46/1/1 47/1/1
f 49/1/2 50/1/2 51/1/2
f 51/1/2 50/1/2 52/1/2
f 53/1/2 54/1/2 55/1/2
f 55/1/2 54/1/2 56/1/2
f 57/1/2 58/1/2 59/1/2
f 59/1/2 58/1/2 60/1/2
f 61/3/2 62/3/2 63/3/2
f 63/3/2 62/3/2 64/3/2
f 66/3/2 67/3/2 68/3/2
f 68/3/2 67/3/2 69/3/2
f 65/2/2 66/2/2 70/2/2
f 66/3/2 68/3/2 71/3/2
f 70/2/2 66/2/2 71/2/2
f 68/2/2 69/2/2 72/2/2
f 71/3/2 68/3/2 72/3/2
f 72/2/2 69/2/2 73/2/2
f 74/2/2 75/2/2 78/2/2
f 75/3/2 76/3/2 79/3/2
f 78/2/2 75/2/2 79/2/2
f 76/2/2 77/2/2 80/2/2
f 79/3/2 76/3/2 80/3/2
f 80/2/2 77/2/2 81/2/2
f 82/2/2 83/2/2 86/2/2
f 83/3/2 84/3/2 87/3/2
f 86/2/2 83/2/2 87/2/2
f 84/2/2 85/2/2 88/2/2
f 87/3/2 84/3/2 88/3/2
f 88/2/2 85/2/2 89/2/2
f 90/3/2 91/3/2 92/3/2
f 92/3/2 91/3/2 93/3/2
f 94/3/2 95/3/2 96/3/2
f 96/3/2 95/3/2 97/3/2
f 100/3/3 99/3/3 98/3/3
f 101/3/3 99/3/3 100/3/3
f 104/3/3 103/3/3 102/3/3
f 105/3/3 103/3/3 104/3/3
f 114/2/3 109/2/3 108/2/3
f 115/2/3 109/2/3 114/2/3
f 116/2/3 111/2/3 110/2/3
f 117/2/3 111/2/3 116/2/3
f 118/2/3 113/2/3 112/2/3
f 119/2/3 113/2/3 118/2/3
f 120/3/3 115/3/3 114/3/3
f 121/3/3 115/3/3 120/3/3
f 122/3/3 117/3/3 116/3/3
f 123/3/3 117/3/3 122/3/3
f 124/3/3 119/3/3 118/3/3
f 125/3/3 119/3/3 124/3/3
f 126/3/3 107/3/3 106/3/3
f 127/3/3 107/3/3 126/3/3
f 128/2/3 121/2/3 120/2/3
f 129/2/3 121/2/3 128/2/3
f 130/2/3 123/2/3 122/2/3
f 131/2/3 123/2/3 130/2/3
f 132/2/3 125/2/3 124/2/3
f 133/2/3 125/2/3 132/2/3
f 140/1/3 135/1/3 134/1/3
f 141/1/3 135/1/3 140/1/3
f 142/1/3 137/1/3 136/1/3
f 143/1/3 137/1/3 142/1/3
f 144/1/3 139/1/3 138/1/3
f 145/1/3 139/1/3 144/1/3
f 146/1/4 147/1/4 152/1/4
f 152/1/4 147/1/4 153/1/4
f 148/1/4 149/1/4 154/1/4
f 154/1/4 149/1/4 155/1/4
f 150/1/4 151/1/4 156/1/4
f 156/1/4 151/1/4 157/1/4
f 160/2/4 161/2/4 166/2/4
f 166/2/4 161/2/4 167/2/4
f 162/2/4 163/2/4 168/2/4
f 168/2/4 163/2/4 169/2/4
f 164/2/4 165/2/4 170/2/4
f 170/2/4 165/2/4 171/2/4
f 166/3/4 167/3/4 172/3/4
f 172/3/4 167/3/4 173/3/4
f 168/3/4 169/3/4 174/3/4
f 174/3/4 169/3/4 175/3/4
f 170/3/4 171/3/4 176/3/4
f 176/3/4 171/3/4 177/3/4
f 158/3/4 159/3/4 178/3/4
f 178/3/4 159/3/4 179/3/4
f 166/3/4 172/3/4 180/3/4
f 172/2/4 173/2/4 181/2/4
f 180/3/4 172/3/4 181/3/4
f 181/2/4 173/2/4 182/2/4
f 174/2/4 175/2/4 183/2/4
f 183/2/4 175/2/4 184/2/4
f 176/2/4 177/2/4 185/2/4
f 185/2/4 177/2/4 186/2/4
f 187/3/4 188/3/4 189/3/4
f 189/3/4 188/3/4 190/3/4
f 191/3/4 192/3/4 193/3/4
f 193/3/4 192/3/4 194/3/4
f 197/3/5 196/3/5 195/3/5
f 198/3/5 196/3/5 197/3/5
f 203/2/5 200/2/5 199/2/5
f 204/3/5 201/3/5 200/3/5
f 204/2/5 200/2/5 203/2/5
f 205/2/5 202/2/5 201/2/5
f 205/3/5 201/3/5 204/3/5
f 206/2/5 202/2/5 205/2/5
f 207/3/5 204/3/5 203/3/5
f 208/3/5 204/3/5 207/3/5
f 209/3/5 206/3/5 205/3/5
f 210/2/5 208/2/5 207/2/5
f 211/3/5 209/3/5 208/3/5
f 211/2/5 208/2/5 210/2/5
f 212/3/5 206/3/5 209/3/5
f 212/3/5 209/3/5 211/3/5
f 217/2/5 214/2/5 213/2/5
f 218/3/5 215/3/5 214/3/5
f 218/2/5 214/2/5 217/2/5
f 219/2/5 216/2/5 215/2/5
f 219/3/5 215/3/5 218/3/5
f 220/2/5 216/2/5 219/2/5
f 221/3/5 218/3/5 217/3/5
f 222/3/5 218/3/5 221/3/5
f 223/3/5 220/3/5 219/3/5
f 224/3/5 220/3/5 223/3/5
f 225/2/5 222/2/5 221/2/5
f 226/3/5 223/3/5 222/3/5
f 226/2/5 222/2/5 225/2/5
f 227/2/5 224/2/5 223/2/5
f 227/3/5 223/3/5 226/3/5
f 228/2/5 224/2/5 227/2/5
f 233/2/5 230/2/5 229/2/5
f 234/3/5 231/3/5 230/3/5
f 234/2/5 230/2/5 233/2/5
f 235/2/5 232/2/5 231/2/5
f 235/3/5 231/3/5 234/3/5
f 236/2/5 232/2/5 235/2/5
f 237/3/5 234/3/5 233/3/5
f 238/3/5 234/3/5 237/3/5
f 239/3/5 236/3/5 235/3/5
f 240/3/5 236/3/5 239/3/5
f 241/2/5 238/2/5 237/2/5
f 242/3/5 239/3/5 238/3/5
f 242/2/5 238/2/5 241/2/5
f 243/2/5 240/2/5 239/2/5
f 243/3/5 239/3/5 242/3/5
f 244/2/5 240/2/5 243/2/5
f 245/3/6 246/3/6 247/3/6
f 247/3/6 246/3/6 248/3/6
f 245/3/6 247/3/6 249/3/6
f 248/3/6 246/3/6 250/3/6
f 245/3/6 249/3/6 251/3/6
f 249/3/6 250/3/6 251/3/6
f 250/3/6 246/3/6 252/3/6
f 251/3/6 250/3/6 252/3/6
f 253/3/6 254/3/6 255/3/6
f 255/3/6 254/3/6 256/3/6
f 253/3/6 255/3/6 257/3/6
f 256/3/6 254/3/6 258/3/6
f 253/3/6 257/3/6 259/3/6
f 257/3/6 258/3/6 259/3/6
f 258/3/6 254/3/6 260/3/6
f 259/3/6 258/3/6 260/3/6
f 261/3/6 262/3/6 263/3/6
f 263/3/6 262/3/6 264/3/6
f 261/3/6 263/3/6 265/3/6
f 264/3/6 262/3/6 266/3/6
f 261/3/6 265/3/6 267/3/6
f 265/3/6 266/3/6 267/3/6
f 266/3/6 262/3/6 268/3/6
f 267/3/6 266/3/6 268/3/6
f 269/2/6 270/2/6 273/2/6
f 270/3/6 271/3/6 274/3/6
f 273/2/6 270/2/6 274/2/6
f 271/2/6 272/2/6 275/2/6
f 274/3/6 271/3/6 275/3/6
f 275/2/6 272/2/6 276/2/6
f 273/3/6 274/3/6 277/3/6
f 277/3/6 274/3/6 278/3/6
f 275/3/6 276/3/6 279/3/6
f 279/3/6 276/3/6 280/3/6
f 277/2/6 278/2/6 281/2/6
f 278/3/6 279/3/6 282/3/6
f 281/2/6 278/2/6 282/2/6
f 279/2/6 280/2/6 283/2/6
f 282/3/6 279/3/6 283/3/6
f 283/2/6 280/2/6 284/2/6
f 285/2/6 286/2/6 289/2/6
f 286/3/6 287/3/6 290/3/6
f 289/2/6 286/2/6 290/2/6
f 287/2/6 288/2/6 291/2/6
f 290/3/6 287/3/6 291/3/6
f 291/2/6 288/2/6 292/2/6
f 289/3/6 290/3/6 293/3/6
f 293/3/6 290/3/6 294/3/6
f 291/3/6 292/3/6 295/3/6
f 295/3/6 292/3/6 296/3/6
f 293/2/6 294/2/6 297/2/6
f 294/3/6 295/3/6 298/3/6
f 297/2/6 294/2/6 298/2/6
f 295/2/6 296/2/6 299/2/6
f 298/3/6 295/3/6 299/3/6
f 299/2/6 296/2/6 300/2/6
f 301/2/6 302/2/6 305/2/6
f 302/3/6 303/3/6 306/3/6
f 305/2/6 302/2/6 306/2/6
f 303/2/6 304/2/6 307/2/6
f 306/3/6 303/3/6 307/3/6
f 307/2/6 304/2/6 308/2/6
f 305/3/6 306/3/6 309/3/6
f 306/3/6 307/3/6 309/3/6
f 307/3/6 308/3/6 309/3/6
f 309/3/6 308/3/6 310/3/6
f 310/3/6 308/3/6 311/3/6
f 311/3/6 308/3/6 312/3/6
f 309/2/6 310/2/6 313/2/6
f 310/3/6 311/3/6 314/3/6
f 313/2/6 310/2/6 314/2/6
f 311/2/6 312/2/6 315/2/6
f 314/3/6 311/3/6 315/3/6
f 315/2/6 312/2/6 316/2/6
